# xmcd
#
# Track frame offsets:
#	187
#	27307
#	45692
#	62560
#	79187
#	101700
#	119365
#	135825
#	151962
#	175957
#	198572
#
# Disc length: 2907 seconds
#
# Revision: 1
# Processed by: cddbd v1.5PL3 Copyright (c) Steve Scherf et al.
# Submitted via: CDex 1.50Beta5
#
DISCID=8e0b590b
DTITLE=伊勢正三 - 22本のキャンドル Disc 2
DYEAR=1991
DGENRE=Pop
TTITLE0=ほおづえをつく女
TTITLE1=3号線を左に折れ
TTITLE2=通り雨
TTITLE3=アフタヌーン通り25
TTITLE4=君と歩いた青春
TTITLE5=海風
TTITLE6=冬京
TTITLE7=そんな暮らしの中で
TTITLE8=月が射す夜
TTITLE9=Bye Bye
TTITLE10=Musician
EXTD=
EXTT0=
EXTT1=
EXTT2=
EXTT3=
EXTT4=
EXTT5=
EXTT6=
EXTT7=
EXTT8=
EXTT9=
EXTT10=
PLAYORDER=
